<?xml version="1.0" encoding="utf-8" standalone="no"?>
<!DOCTYPE svg PUBLIC "-//W3C//DTD SVG 1.1//EN"
  "http://www.w3.org/Graphics/SVG/1.1/DTD/svg11.dtd">
<svg xmlns:xlink="http://www.w3.org/1999/xlink" width="576pt" height="576pt" viewBox="0 0 576 576" xmlns="http://www.w3.org/2000/svg" version="1.1">
 <metadata>
  <rdf:RDF xmlns:dc="http://purl.org/dc/elements/1.1/" xmlns:cc="http://creativecommons.org/ns#" xmlns:rdf="http://www.w3.org/1999/02/22-rdf-syntax-ns#">
   <cc:Work>
    <dc:type rdf:resource="http://purl.org/dc/dcmitype/StillImage"/>
    <dc:date>2025-11-02T00:29:43.041819</dc:date>
    <dc:format>image/svg+xml</dc:format>
    <dc:creator>
     <cc:Agent>
      <dc:title>Matplotlib v3.10.6, https://matplotlib.org/</dc:title>
     </cc:Agent>
    </dc:creator>
   </cc:Work>
  </rdf:RDF>
 </metadata>
 <defs>
  <style type="text/css">*{stroke-linejoin: round; stroke-linecap: butt}</style>
 </defs>
 <g id="figure_1">
  <g id="patch_1">
   <path d="M 0 576 
L 576 576 
L 576 0 
L 0 0 
z
" style="fill: #ffffff"/>
  </g>
  <g id="axes_1">
   <g id="patch_2">
    <path d="M 72 512.64 
L 518.4 512.64 
L 518.4 69.12 
L 72 69.12 
z
" style="fill: #ffffff"/>
   </g>
   <g id="matplotlib.axis_1">
    <g id="xtick_1">
     <g id="line2d_1">
      <path d="M 92.041528 512.64 
L 92.041528 69.12 
" clip-path="url(#p394d760a85)" style="fill: none; stroke: #b0b0b0; stroke-opacity: 0.25; stroke-width: 0.75; stroke-linecap: square"/>
     </g>
     <g id="line2d_2">
      <defs>
       <path id="m921272365d" d="M 0 0 
L 0 3.5 
" style="stroke: #000000; stroke-width: 0.8"/>
      </defs>
      <g>
       <use xlink:href="#m921272365d" x="92.041528" y="512.64" style="stroke: #000000; stroke-width: 0.8"/>
      </g>
     </g>
     <g id="text_1">
      <!-- 0 -->
      <g transform="translate(86.039965 531.89625) scale(0.2 -0.2)">
       <defs>
        <path id="CourierNewPSMT-30" d="M 3125 2284 
L 3125 1634 
Q 3125 788 2722 294 
Q 2406 -94 1925 -94 
Q 1694 -94 1489 -1 
Q 1284 91 1141 256 
Q 1050 359 942 587 
Q 834 816 788 1006 
Q 716 1275 716 1634 
L 716 2284 
Q 716 3134 1119 3628 
Q 1434 4016 1916 4016 
Q 2150 4016 2353 3923 
Q 2556 3831 2700 3666 
Q 2794 3559 2900 3331 
Q 3006 3103 3056 2916 
Q 3125 2647 3125 2284 
z
M 2863 2250 
Q 2863 2622 2758 2942 
Q 2653 3263 2522 3453 
Q 2444 3563 2319 3641 
Q 2141 3750 1919 3750 
Q 1478 3750 1228 3300 
Q 978 2850 978 2250 
L 978 1672 
Q 978 1300 1083 978 
Q 1188 656 1322 466 
Q 1397 359 1522 281 
Q 1700 169 1925 169 
Q 2363 169 2613 620 
Q 2863 1072 2863 1672 
L 2863 2250 
z
" transform="scale(0.015625)"/>
       </defs>
       <use xlink:href="#CourierNewPSMT-30"/>
      </g>
     </g>
    </g>
    <g id="xtick_2">
     <g id="line2d_3">
      <path d="M 203.491073 512.64 
L 203.491073 69.12 
" clip-path="url(#p394d760a85)" style="fill: none; stroke: #b0b0b0; stroke-opacity: 0.25; stroke-width: 0.75; stroke-linecap: square"/>
     </g>
     <g id="line2d_4">
      <g>
       <use xlink:href="#m921272365d" x="203.491073" y="512.64" style="stroke: #000000; stroke-width: 0.8"/>
      </g>
     </g>
     <g id="text_2">
      <!-- 2 -->
      <g transform="translate(197.48951 531.89625) scale(0.2 -0.2)">
       <defs>
        <path id="CourierNewPSMT-32" d="M 791 263 
L 2806 263 
L 2806 366 
Q 2806 459 2843 500 
Q 2881 541 2941 541 
Q 2997 541 3034 500 
Q 3072 459 3072 366 
L 3072 0 
L 534 0 
L 534 388 
Q 1334 1106 2091 1850 
Q 2444 2197 2575 2359 
Q 2706 2522 2754 2645 
Q 2803 2769 2803 2894 
Q 2803 3231 2531 3490 
Q 2259 3750 1875 3750 
Q 1531 3750 1265 3553 
Q 1000 3356 922 3066 
Q 903 2991 875 2969 
Q 838 2938 788 2938 
Q 734 2938 698 2973 
Q 663 3009 663 3059 
Q 663 3209 827 3465 
Q 991 3722 1280 3869 
Q 1569 4016 1872 4016 
Q 2363 4016 2716 3675 
Q 3069 3334 3069 2903 
Q 3069 2722 3009 2570 
Q 2950 2419 2808 2239 
Q 2666 2059 2297 1697 
Q 1372 784 791 281 
L 791 263 
z
" transform="scale(0.015625)"/>
       </defs>
       <use xlink:href="#CourierNewPSMT-32"/>
      </g>
     </g>
    </g>
    <g id="xtick_3">
     <g id="line2d_5">
      <path d="M 314.940618 512.64 
L 314.940618 69.12 
" clip-path="url(#p394d760a85)" style="fill: none; stroke: #b0b0b0; stroke-opacity: 0.25; stroke-width: 0.75; stroke-linecap: square"/>
     </g>
     <g id="line2d_6">
      <g>
       <use xlink:href="#m921272365d" x="314.940618" y="512.64" style="stroke: #000000; stroke-width: 0.8"/>
      </g>
     </g>
     <g id="text_3">
      <!-- 4 -->
      <g transform="translate(308.939056 531.89625) scale(0.2 -0.2)">
       <defs>
        <path id="CourierNewPSMT-34" d="M 2409 1097 
L 669 1097 
L 669 1400 
L 2128 3922 
L 2675 3922 
L 2675 1359 
L 2894 1359 
Q 2991 1359 3031 1323 
Q 3072 1288 3072 1228 
Q 3072 1172 3031 1134 
Q 2991 1097 2894 1097 
L 2675 1097 
L 2675 263 
L 2894 263 
Q 2991 263 3031 227 
Q 3072 191 3072 131 
Q 3072 75 3031 37 
Q 2991 0 2894 0 
L 1919 0 
Q 1822 0 1781 37 
Q 1741 75 1741 131 
Q 1741 191 1781 227 
Q 1822 263 1919 263 
L 2409 263 
L 2409 1097 
z
M 2409 1359 
L 2409 3656 
L 2272 3656 
L 944 1359 
L 2409 1359 
z
" transform="scale(0.015625)"/>
       </defs>
       <use xlink:href="#CourierNewPSMT-34"/>
      </g>
     </g>
    </g>
    <g id="xtick_4">
     <g id="line2d_7">
      <path d="M 426.390163 512.64 
L 426.390163 69.12 
" clip-path="url(#p394d760a85)" style="fill: none; stroke: #b0b0b0; stroke-opacity: 0.25; stroke-width: 0.75; stroke-linecap: square"/>
     </g>
     <g id="line2d_8">
      <g>
       <use xlink:href="#m921272365d" x="426.390163" y="512.64" style="stroke: #000000; stroke-width: 0.8"/>
      </g>
     </g>
     <g id="text_4">
      <!-- 6 -->
      <g transform="translate(420.388601 531.89625) scale(0.2 -0.2)">
       <defs>
        <path id="CourierNewPSMT-36" d="M 1138 1659 
Q 1381 2019 1639 2191 
Q 1897 2363 2213 2363 
Q 2631 2363 2956 2014 
Q 3281 1666 3281 1153 
Q 3281 684 2984 295 
Q 2688 -94 2166 -94 
Q 1825 -94 1529 115 
Q 1234 325 1066 759 
Q 856 1300 856 1956 
Q 856 2450 1053 2875 
Q 1203 3203 1453 3451 
Q 1703 3700 2036 3858 
Q 2369 4016 2756 4016 
Q 3019 4016 3194 3909 
Q 3269 3863 3269 3784 
Q 3269 3728 3234 3692 
Q 3200 3656 3147 3656 
Q 3106 3656 3050 3688 
Q 2922 3750 2731 3750 
Q 2122 3750 1620 3226 
Q 1119 2703 1119 1981 
Q 1119 1878 1138 1659 
z
M 1197 1225 
Q 1316 656 1570 412 
Q 1825 169 2172 169 
Q 2522 169 2770 442 
Q 3019 716 3019 1153 
Q 3019 1563 2769 1831 
Q 2519 2100 2203 2100 
Q 1900 2100 1619 1841 
Q 1431 1669 1197 1225 
z
" transform="scale(0.015625)"/>
       </defs>
       <use xlink:href="#CourierNewPSMT-36"/>
      </g>
     </g>
    </g>
    <g id="xtick_5">
     <g id="line2d_9">
      <path d="M 119.903914 512.64 
L 119.903914 69.12 
" clip-path="url(#p394d760a85)" style="fill: none; stroke: #b0b0b0; stroke-opacity: 0.15; stroke-width: 0.25; stroke-linecap: square"/>
     </g>
     <g id="line2d_10">
      <defs>
       <path id="m433bf3e6f1" d="M 0 0 
L 0 2 
" style="stroke: #000000; stroke-width: 0.6"/>
      </defs>
      <g>
       <use xlink:href="#m433bf3e6f1" x="119.903914" y="512.64" style="stroke: #000000; stroke-width: 0.6"/>
      </g>
     </g>
    </g>
    <g id="xtick_6">
     <g id="line2d_11">
      <path d="M 147.7663 512.64 
L 147.7663 69.12 
" clip-path="url(#p394d760a85)" style="fill: none; stroke: #b0b0b0; stroke-opacity: 0.15; stroke-width: 0.25; stroke-linecap: square"/>
     </g>
     <g id="line2d_12">
      <g>
       <use xlink:href="#m433bf3e6f1" x="147.7663" y="512.64" style="stroke: #000000; stroke-width: 0.6"/>
      </g>
     </g>
    </g>
    <g id="xtick_7">
     <g id="line2d_13">
      <path d="M 175.628687 512.64 
L 175.628687 69.12 
" clip-path="url(#p394d760a85)" style="fill: none; stroke: #b0b0b0; stroke-opacity: 0.15; stroke-width: 0.25; stroke-linecap: square"/>
     </g>
     <g id="line2d_14">
      <g>
       <use xlink:href="#m433bf3e6f1" x="175.628687" y="512.64" style="stroke: #000000; stroke-width: 0.6"/>
      </g>
     </g>
    </g>
    <g id="xtick_8">
     <g id="line2d_15">
      <path d="M 231.353459 512.64 
L 231.353459 69.12 
" clip-path="url(#p394d760a85)" style="fill: none; stroke: #b0b0b0; stroke-opacity: 0.15; stroke-width: 0.25; stroke-linecap: square"/>
     </g>
     <g id="line2d_16">
      <g>
       <use xlink:href="#m433bf3e6f1" x="231.353459" y="512.64" style="stroke: #000000; stroke-width: 0.6"/>
      </g>
     </g>
    </g>
    <g id="xtick_9">
     <g id="line2d_17">
      <path d="M 259.215846 512.64 
L 259.215846 69.12 
" clip-path="url(#p394d760a85)" style="fill: none; stroke: #b0b0b0; stroke-opacity: 0.15; stroke-width: 0.25; stroke-linecap: square"/>
     </g>
     <g id="line2d_18">
      <g>
       <use xlink:href="#m433bf3e6f1" x="259.215846" y="512.64" style="stroke: #000000; stroke-width: 0.6"/>
      </g>
     </g>
    </g>
    <g id="xtick_10">
     <g id="line2d_19">
      <path d="M 287.078232 512.64 
L 287.078232 69.12 
" clip-path="url(#p394d760a85)" style="fill: none; stroke: #b0b0b0; stroke-opacity: 0.15; stroke-width: 0.25; stroke-linecap: square"/>
     </g>
     <g id="line2d_20">
      <g>
       <use xlink:href="#m433bf3e6f1" x="287.078232" y="512.64" style="stroke: #000000; stroke-width: 0.6"/>
      </g>
     </g>
    </g>
    <g id="xtick_11">
     <g id="line2d_21">
      <path d="M 342.803004 512.64 
L 342.803004 69.12 
" clip-path="url(#p394d760a85)" style="fill: none; stroke: #b0b0b0; stroke-opacity: 0.15; stroke-width: 0.25; stroke-linecap: square"/>
     </g>
     <g id="line2d_22">
      <g>
       <use xlink:href="#m433bf3e6f1" x="342.803004" y="512.64" style="stroke: #000000; stroke-width: 0.6"/>
      </g>
     </g>
    </g>
    <g id="xtick_12">
     <g id="line2d_23">
      <path d="M 370.665391 512.64 
L 370.665391 69.12 
" clip-path="url(#p394d760a85)" style="fill: none; stroke: #b0b0b0; stroke-opacity: 0.15; stroke-width: 0.25; stroke-linecap: square"/>
     </g>
     <g id="line2d_24">
      <g>
       <use xlink:href="#m433bf3e6f1" x="370.665391" y="512.64" style="stroke: #000000; stroke-width: 0.6"/>
      </g>
     </g>
    </g>
    <g id="xtick_13">
     <g id="line2d_25">
      <path d="M 398.527777 512.64 
L 398.527777 69.12 
" clip-path="url(#p394d760a85)" style="fill: none; stroke: #b0b0b0; stroke-opacity: 0.15; stroke-width: 0.25; stroke-linecap: square"/>
     </g>
     <g id="line2d_26">
      <g>
       <use xlink:href="#m433bf3e6f1" x="398.527777" y="512.64" style="stroke: #000000; stroke-width: 0.6"/>
      </g>
     </g>
    </g>
    <g id="xtick_14">
     <g id="line2d_27">
      <path d="M 454.252549 512.64 
L 454.252549 69.12 
" clip-path="url(#p394d760a85)" style="fill: none; stroke: #b0b0b0; stroke-opacity: 0.15; stroke-width: 0.25; stroke-linecap: square"/>
     </g>
     <g id="line2d_28">
      <g>
       <use xlink:href="#m433bf3e6f1" x="454.252549" y="512.64" style="stroke: #000000; stroke-width: 0.6"/>
      </g>
     </g>
    </g>
    <g id="xtick_15">
     <g id="line2d_29">
      <path d="M 482.114936 512.64 
L 482.114936 69.12 
" clip-path="url(#p394d760a85)" style="fill: none; stroke: #b0b0b0; stroke-opacity: 0.15; stroke-width: 0.25; stroke-linecap: square"/>
     </g>
     <g id="line2d_30">
      <g>
       <use xlink:href="#m433bf3e6f1" x="482.114936" y="512.64" style="stroke: #000000; stroke-width: 0.6"/>
      </g>
     </g>
    </g>
    <g id="xtick_16">
     <g id="line2d_31">
      <path d="M 509.977322 512.64 
L 509.977322 69.12 
" clip-path="url(#p394d760a85)" style="fill: none; stroke: #b0b0b0; stroke-opacity: 0.15; stroke-width: 0.25; stroke-linecap: square"/>
     </g>
     <g id="line2d_32">
      <g>
       <use xlink:href="#m433bf3e6f1" x="509.977322" y="512.64" style="stroke: #000000; stroke-width: 0.6"/>
      </g>
     </g>
    </g>
    <g id="text_5">
     <!-- Studied Effects (Biology) -->
     <g transform="translate(145.160937 552.330625) scale(0.2 -0.2)">
      <defs>
       <path id="CourierNewPSMT-53" d="M 2859 3394 
L 2859 3481 
Q 2859 3575 2895 3615 
Q 2931 3656 2991 3656 
Q 3050 3656 3086 3615 
Q 3122 3575 3122 3481 
L 3122 2813 
Q 3122 2719 3086 2678 
Q 3050 2638 2991 2638 
Q 2934 2638 2898 2675 
Q 2863 2713 2859 2797 
Q 2844 3059 2589 3268 
Q 2334 3478 1922 3478 
Q 1488 3478 1231 3254 
Q 975 3031 975 2728 
Q 975 2572 1047 2444 
Q 1119 2316 1237 2236 
Q 1356 2156 1506 2107 
Q 1656 2059 1975 2006 
Q 2509 1919 2713 1828 
Q 2984 1706 3123 1490 
Q 3263 1275 3263 981 
Q 3263 531 2903 214 
Q 2544 -103 1934 -103 
Q 1250 -103 841 325 
L 841 175 
Q 841 81 805 40 
Q 769 0 709 0 
Q 653 0 615 40 
Q 578 81 578 175 
L 578 900 
Q 578 997 614 1037 
Q 650 1078 709 1078 
Q 766 1078 802 1040 
Q 838 1003 841 919 
Q 856 631 1148 395 
Q 1441 159 1934 159 
Q 2428 159 2714 406 
Q 3000 653 3000 991 
Q 3000 1197 2890 1358 
Q 2781 1519 2566 1613 
Q 2416 1678 1941 1759 
Q 1288 1869 1000 2094 
Q 713 2319 713 2734 
Q 713 3147 1042 3444 
Q 1372 3741 1913 3741 
Q 2463 3741 2859 3394 
z
" transform="scale(0.015625)"/>
       <path id="CourierNewPSMT-74" d="M 1381 2706 
L 2806 2706 
Q 2900 2706 2940 2668 
Q 2981 2631 2981 2572 
Q 2981 2516 2940 2478 
Q 2900 2441 2806 2441 
L 1381 2441 
L 1381 694 
Q 1381 466 1564 312 
Q 1747 159 2100 159 
Q 2366 159 2675 239 
Q 2984 319 3156 419 
Q 3219 459 3259 459 
Q 3309 459 3346 420 
Q 3384 381 3384 328 
Q 3384 281 3344 241 
Q 3244 138 2858 17 
Q 2472 -103 2119 -103 
Q 1659 -103 1387 112 
Q 1116 328 1116 694 
L 1116 2441 
L 631 2441 
Q 538 2441 497 2478 
Q 456 2516 456 2575 
Q 456 2631 497 2668 
Q 538 2706 631 2706 
L 1116 2706 
L 1116 3481 
Q 1116 3575 1153 3615 
Q 1191 3656 1247 3656 
Q 1306 3656 1343 3615 
Q 1381 3575 1381 3481 
L 1381 2706 
z
" transform="scale(0.015625)"/>
       <path id="CourierNewPSMT-75" d="M 2819 0 
L 2819 384 
Q 2281 -103 1656 -103 
Q 1272 -103 1072 106 
Q 813 381 813 747 
L 813 2441 
L 459 2441 
Q 366 2441 325 2478 
Q 284 2516 284 2575 
Q 284 2631 325 2668 
Q 366 2706 459 2706 
L 1075 2706 
L 1075 747 
Q 1075 491 1237 325 
Q 1400 159 1644 159 
Q 2284 159 2819 747 
L 2819 2441 
L 2334 2441 
Q 2241 2441 2200 2478 
Q 2159 2516 2159 2575 
Q 2159 2631 2200 2668 
Q 2241 2706 2334 2706 
L 3081 2706 
L 3081 263 
L 3303 263 
Q 3397 263 3437 227 
Q 3478 191 3478 131 
Q 3478 75 3437 37 
Q 3397 0 3303 0 
L 2819 0 
z
" transform="scale(0.015625)"/>
       <path id="CourierNewPSMT-64" d="M 3206 3922 
L 3206 263 
L 3556 263 
Q 3653 263 3693 227 
Q 3734 191 3734 131 
Q 3734 75 3693 37 
Q 3653 0 3556 0 
L 2941 0 
L 2941 522 
Q 2484 -103 1781 -103 
Q 1425 -103 1098 86 
Q 772 275 583 625 
Q 394 975 394 1347 
Q 394 1722 583 2070 
Q 772 2419 1098 2609 
Q 1425 2800 1784 2800 
Q 2472 2800 2941 2175 
L 2941 3656 
L 2591 3656 
Q 2494 3656 2453 3693 
Q 2413 3731 2413 3791 
Q 2413 3847 2453 3884 
Q 2494 3922 2591 3922 
L 3206 3922 
z
M 2941 1347 
Q 2941 1847 2603 2190 
Q 2266 2534 1800 2534 
Q 1331 2534 993 2190 
Q 656 1847 656 1347 
Q 656 850 993 504 
Q 1331 159 1800 159 
Q 2266 159 2603 504 
Q 2941 850 2941 1347 
z
" transform="scale(0.015625)"/>
       <path id="CourierNewPSMT-69" d="M 2050 4053 
L 2050 3375 
L 1663 3375 
L 1663 4053 
L 2050 4053 
z
M 2059 2706 
L 2059 263 
L 3091 263 
Q 3188 263 3228 227 
Q 3269 191 3269 131 
Q 3269 75 3228 37 
Q 3188 0 3091 0 
L 766 0 
Q 672 0 631 37 
Q 591 75 591 131 
Q 591 191 631 227 
Q 672 263 766 263 
L 1797 263 
L 1797 2441 
L 1031 2441 
Q 938 2441 895 2478 
Q 853 2516 853 2572 
Q 853 2631 893 2668 
Q 934 2706 1031 2706 
L 2059 2706 
z
" transform="scale(0.015625)"/>
       <path id="CourierNewPSMT-65" d="M 3341 1291 
L 666 1291 
Q 734 781 1092 470 
Q 1450 159 1978 159 
Q 2272 159 2594 256 
Q 2916 353 3119 513 
Q 3178 559 3222 559 
Q 3272 559 3309 520 
Q 3347 481 3347 428 
Q 3347 375 3297 325 
Q 3147 169 2764 33 
Q 2381 -103 1978 -103 
Q 1303 -103 851 339 
Q 400 781 400 1409 
Q 400 1981 823 2390 
Q 1247 2800 1872 2800 
Q 2516 2800 2931 2379 
Q 3347 1959 3341 1291 
z
M 3075 1556 
Q 2997 1991 2664 2262 
Q 2331 2534 1872 2534 
Q 1413 2534 1081 2265 
Q 750 1997 669 1556 
L 3075 1556 
z
" transform="scale(0.015625)"/>
       <path id="CourierNewPSMT-20" transform="scale(0.015625)"/>
       <path id="CourierNewPSMT-45" d="M 1066 1766 
L 1066 263 
L 3084 263 
L 3084 1038 
Q 3084 1131 3120 1172 
Q 3156 1213 3216 1213 
Q 3275 1213 3311 1172 
Q 3347 1131 3347 1038 
L 3347 0 
L 450 0 
Q 356 0 315 37 
Q 275 75 275 131 
Q 275 191 315 227 
Q 356 263 450 263 
L 803 263 
L 803 3394 
L 450 3394 
Q 356 3394 315 3430 
Q 275 3466 275 3525 
Q 275 3584 315 3620 
Q 356 3656 450 3656 
L 3209 3656 
L 3209 2753 
Q 3209 2659 3173 2618 
Q 3138 2578 3078 2578 
Q 3019 2578 2983 2618 
Q 2947 2659 2947 2753 
L 2947 3394 
L 1066 3394 
L 1066 2028 
L 2006 2028 
L 2006 2325 
Q 2006 2419 2043 2459 
Q 2081 2500 2141 2500 
Q 2197 2500 2234 2459 
Q 2272 2419 2272 2325 
L 2272 1469 
Q 2272 1375 2234 1334 
Q 2197 1294 2141 1294 
Q 2081 1294 2043 1334 
Q 2006 1375 2006 1469 
L 2006 1766 
L 1066 1766 
z
" transform="scale(0.015625)"/>
       <path id="CourierNewPSMT-66" d="M 1747 2441 
L 1747 263 
L 2900 263 
Q 2994 263 3034 227 
Q 3075 191 3075 131 
Q 3075 75 3034 37 
Q 2994 0 2900 0 
L 847 0 
Q 753 0 712 37 
Q 672 75 672 131 
Q 672 191 712 227 
Q 753 263 847 263 
L 1481 263 
L 1481 2441 
L 913 2441 
Q 819 2441 778 2478 
Q 738 2516 738 2575 
Q 738 2631 778 2668 
Q 819 2706 913 2706 
L 1481 2706 
L 1481 3103 
Q 1481 3434 1750 3678 
Q 2019 3922 2463 3922 
Q 2834 3922 3256 3853 
Q 3416 3828 3448 3793 
Q 3481 3759 3481 3703 
Q 3481 3647 3443 3611 
Q 3406 3575 3344 3575 
Q 3319 3575 3259 3584 
Q 2788 3656 2463 3656 
Q 2119 3656 1933 3487 
Q 1747 3319 1747 3103 
L 1747 2706 
L 2975 2706 
Q 3069 2706 3109 2668 
Q 3150 2631 3150 2572 
Q 3150 2516 3109 2478 
Q 3069 2441 2975 2441 
L 1747 2441 
z
" transform="scale(0.015625)"/>
       <path id="CourierNewPSMT-63" d="M 3016 2441 
L 3016 2528 
Q 3016 2625 3053 2665 
Q 3091 2706 3147 2706 
Q 3206 2706 3243 2665 
Q 3281 2625 3281 2528 
L 3281 1934 
Q 3278 1838 3242 1797 
Q 3206 1756 3147 1756 
Q 3094 1756 3058 1792 
Q 3022 1828 3016 1913 
Q 2997 2134 2723 2334 
Q 2450 2534 1988 2534 
Q 1403 2534 1100 2168 
Q 797 1803 797 1331 
Q 797 822 1131 490 
Q 1466 159 1997 159 
Q 2303 159 2620 271 
Q 2938 384 3194 634 
Q 3259 697 3309 697 
Q 3363 697 3398 661 
Q 3434 625 3434 572 
Q 3434 438 3119 231 
Q 2609 -103 1984 -103 
Q 1350 -103 942 301 
Q 534 706 534 1328 
Q 534 1963 951 2381 
Q 1369 2800 2003 2800 
Q 2606 2800 3016 2441 
z
" transform="scale(0.015625)"/>
       <path id="CourierNewPSMT-73" d="M 2788 2534 
Q 2788 2625 2825 2665 
Q 2863 2706 2919 2706 
Q 2978 2706 3015 2665 
Q 3053 2625 3053 2528 
L 3053 2078 
Q 3053 1984 3015 1943 
Q 2978 1903 2919 1903 
Q 2866 1903 2830 1937 
Q 2794 1972 2788 2050 
Q 2769 2238 2594 2359 
Q 2338 2534 1916 2534 
Q 1475 2534 1231 2356 
Q 1047 2222 1047 2056 
Q 1047 1869 1266 1744 
Q 1416 1656 1834 1609 
Q 2381 1550 2594 1475 
Q 2897 1366 3045 1172 
Q 3194 978 3194 753 
Q 3194 419 2872 158 
Q 2550 -103 1928 -103 
Q 1306 -103 909 213 
Q 909 106 896 75 
Q 884 44 851 22 
Q 819 0 778 0 
Q 722 0 684 40 
Q 647 81 647 175 
L 647 716 
Q 647 809 683 850 
Q 719 891 778 891 
Q 834 891 873 852 
Q 913 813 913 747 
Q 913 603 984 506 
Q 1094 356 1333 257 
Q 1572 159 1919 159 
Q 2431 159 2681 350 
Q 2931 541 2931 753 
Q 2931 997 2678 1144 
Q 2422 1291 1933 1341 
Q 1444 1391 1231 1472 
Q 1019 1553 900 1715 
Q 781 1878 781 2066 
Q 781 2403 1112 2601 
Q 1444 2800 1903 2800 
Q 2447 2800 2788 2534 
z
" transform="scale(0.015625)"/>
       <path id="CourierNewPSMT-28" d="M 1891 1556 
Q 1891 1916 1984 2319 
Q 2078 2722 2343 3250 
Q 2609 3778 2731 3888 
Q 2769 3922 2813 3922 
Q 2869 3922 2908 3884 
Q 2947 3847 2947 3794 
Q 2947 3763 2925 3725 
Q 2581 3094 2434 2581 
Q 2288 2069 2288 1556 
Q 2288 1041 2434 528 
Q 2581 16 2925 -613 
Q 2947 -650 2947 -681 
Q 2947 -734 2908 -773 
Q 2869 -813 2813 -813 
Q 2769 -813 2731 -778 
Q 2616 -672 2353 -156 
Q 2091 359 1991 756 
Q 1891 1153 1891 1556 
z
" transform="scale(0.015625)"/>
       <path id="CourierNewPSMT-42" d="M 800 263 
L 800 3394 
L 447 3394 
Q 353 3394 312 3430 
Q 272 3466 272 3525 
Q 272 3584 312 3620 
Q 353 3656 447 3656 
L 2097 3656 
Q 2588 3656 2895 3373 
Q 3203 3091 3203 2709 
Q 3203 2228 2688 1931 
Q 3097 1784 3287 1540 
Q 3478 1297 3478 1003 
Q 3478 741 3353 523 
Q 3228 306 2970 153 
Q 2713 0 2409 0 
L 447 0 
Q 353 0 312 37 
Q 272 75 272 131 
Q 272 191 312 227 
Q 353 263 447 263 
L 800 263 
z
M 1063 2031 
L 1991 2031 
Q 2288 2031 2534 2141 
Q 2725 2228 2831 2393 
Q 2938 2559 2938 2731 
Q 2938 2978 2706 3186 
Q 2475 3394 2103 3394 
L 1063 3394 
L 1063 2031 
z
M 1063 263 
L 2391 263 
Q 2644 263 2831 375 
Q 3019 488 3116 653 
Q 3213 819 3213 997 
Q 3213 1197 3073 1384 
Q 2934 1572 2687 1669 
Q 2441 1766 2006 1766 
L 1063 1766 
L 1063 263 
z
" transform="scale(0.015625)"/>
       <path id="CourierNewPSMT-6f" d="M 3388 1347 
Q 3388 747 2958 322 
Q 2528 -103 1922 -103 
Q 1309 -103 881 323 
Q 453 750 453 1347 
Q 453 1947 881 2373 
Q 1309 2800 1922 2800 
Q 2528 2800 2958 2375 
Q 3388 1950 3388 1347 
z
M 3122 1347 
Q 3122 1841 2770 2187 
Q 2419 2534 1919 2534 
Q 1419 2534 1067 2186 
Q 716 1838 716 1347 
Q 716 859 1067 509 
Q 1419 159 1919 159 
Q 2419 159 2770 507 
Q 3122 856 3122 1347 
z
" transform="scale(0.015625)"/>
       <path id="CourierNewPSMT-6c" d="M 2053 3922 
L 2053 263 
L 3084 263 
Q 3181 263 3222 227 
Q 3263 191 3263 131 
Q 3263 75 3222 37 
Q 3181 0 3084 0 
L 759 0 
Q 666 0 625 37 
Q 584 75 584 131 
Q 584 191 625 227 
Q 666 263 759 263 
L 1791 263 
L 1791 3656 
L 1034 3656 
Q 941 3656 898 3693 
Q 856 3731 856 3791 
Q 856 3847 897 3884 
Q 938 3922 1034 3922 
L 2053 3922 
z
" transform="scale(0.015625)"/>
       <path id="CourierNewPSMT-67" d="M 2803 2225 
L 2803 2706 
L 3419 2706 
Q 3513 2706 3553 2668 
Q 3594 2631 3594 2572 
Q 3594 2516 3553 2478 
Q 3513 2441 3419 2441 
L 3066 2441 
L 3066 -181 
Q 3066 -444 2953 -650 
Q 2878 -788 2703 -934 
Q 2528 -1081 2384 -1143 
Q 2241 -1206 2000 -1206 
L 1256 -1206 
Q 1163 -1206 1122 -1170 
Q 1081 -1134 1081 -1075 
Q 1081 -1016 1122 -978 
Q 1163 -941 1256 -941 
L 2009 -944 
Q 2241 -944 2427 -825 
Q 2613 -706 2734 -478 
Q 2803 -347 2803 -144 
L 2803 644 
Q 2381 66 1716 66 
Q 1175 66 783 467 
Q 391 869 391 1434 
Q 391 2000 783 2400 
Q 1175 2800 1716 2800 
Q 2381 2800 2803 2225 
z
M 2803 1434 
Q 2803 1897 2486 2215 
Q 2169 2534 1728 2534 
Q 1288 2534 972 2214 
Q 656 1894 656 1434 
Q 656 972 972 651 
Q 1288 331 1728 331 
Q 2169 331 2486 651 
Q 2803 972 2803 1434 
z
" transform="scale(0.015625)"/>
       <path id="CourierNewPSMT-79" d="M 1938 0 
L 719 2441 
L 641 2441 
Q 547 2441 506 2478 
Q 466 2516 466 2572 
Q 466 2613 486 2645 
Q 506 2678 539 2692 
Q 572 2706 641 2706 
L 1359 2706 
Q 1453 2706 1493 2668 
Q 1534 2631 1534 2572 
Q 1534 2516 1493 2478 
Q 1453 2441 1359 2441 
L 1006 2441 
L 2078 288 
L 3134 2441 
L 2781 2441 
Q 2688 2441 2647 2478 
Q 2606 2516 2606 2575 
Q 2606 2631 2647 2668 
Q 2688 2706 2781 2706 
L 3497 2706 
Q 3594 2706 3634 2668 
Q 3675 2631 3675 2572 
Q 3675 2531 3650 2497 
Q 3625 2463 3594 2452 
Q 3563 2441 3419 2441 
L 1756 -944 
L 2166 -944 
Q 2259 -944 2300 -980 
Q 2341 -1016 2341 -1075 
Q 2341 -1131 2300 -1168 
Q 2259 -1206 2166 -1206 
L 653 -1206 
Q 559 -1206 518 -1170 
Q 478 -1134 478 -1075 
Q 478 -1016 518 -980 
Q 559 -944 653 -944 
L 1475 -944 
L 1938 0 
z
" transform="scale(0.015625)"/>
       <path id="CourierNewPSMT-29" d="M 1997 1553 
Q 1997 1194 1903 792 
Q 1809 391 1543 -139 
Q 1278 -669 1156 -775 
Q 1119 -813 1075 -813 
Q 1019 -813 980 -773 
Q 941 -734 941 -681 
Q 941 -650 963 -613 
Q 1306 16 1453 528 
Q 1600 1041 1600 1553 
Q 1600 2069 1453 2581 
Q 1306 3094 963 3725 
Q 941 3763 941 3794 
Q 941 3847 980 3884 
Q 1019 3922 1075 3922 
Q 1119 3922 1156 3888 
Q 1272 3781 1534 3265 
Q 1797 2750 1897 2353 
Q 1997 1956 1997 1553 
z
" transform="scale(0.015625)"/>
      </defs>
      <use xlink:href="#CourierNewPSMT-53"/>
      <use xlink:href="#CourierNewPSMT-74" transform="translate(60.009766 0)"/>
      <use xlink:href="#CourierNewPSMT-75" transform="translate(120.019531 0)"/>
      <use xlink:href="#CourierNewPSMT-64" transform="translate(180.029297 0)"/>
      <use xlink:href="#CourierNewPSMT-69" transform="translate(240.039062 0)"/>
      <use xlink:href="#CourierNewPSMT-65" transform="translate(300.048828 0)"/>
      <use xlink:href="#CourierNewPSMT-64" transform="translate(360.058594 0)"/>
      <use xlink:href="#CourierNewPSMT-20" transform="translate(420.068359 0)"/>
      <use xlink:href="#CourierNewPSMT-45" transform="translate(480.078125 0)"/>
      <use xlink:href="#CourierNewPSMT-66" transform="translate(540.087891 0)"/>
      <use xlink:href="#CourierNewPSMT-66" transform="translate(600.097656 0)"/>
      <use xlink:href="#CourierNewPSMT-65" transform="translate(660.107422 0)"/>
      <use xlink:href="#CourierNewPSMT-63" transform="translate(720.117188 0)"/>
      <use xlink:href="#CourierNewPSMT-74" transform="translate(780.126953 0)"/>
      <use xlink:href="#CourierNewPSMT-73" transform="translate(840.136719 0)"/>
      <use xlink:href="#CourierNewPSMT-20" transform="translate(900.146484 0)"/>
      <use xlink:href="#CourierNewPSMT-28" transform="translate(960.15625 0)"/>
      <use xlink:href="#CourierNewPSMT-42" transform="translate(1020.166016 0)"/>
      <use xlink:href="#CourierNewPSMT-69" transform="translate(1080.175781 0)"/>
      <use xlink:href="#CourierNewPSMT-6f" transform="translate(1140.185547 0)"/>
      <use xlink:href="#CourierNewPSMT-6c" transform="translate(1200.195312 0)"/>
      <use xlink:href="#CourierNewPSMT-6f" transform="translate(1260.205078 0)"/>
      <use xlink:href="#CourierNewPSMT-67" transform="translate(1320.214844 0)"/>
      <use xlink:href="#CourierNewPSMT-79" transform="translate(1380.224609 0)"/>
      <use xlink:href="#CourierNewPSMT-29" transform="translate(1440.234375 0)"/>
     </g>
    </g>
   </g>
   <g id="matplotlib.axis_2">
    <g id="ytick_1">
     <g id="line2d_33">
      <path d="M 72 492.480018 
L 518.4 492.480018 
" clip-path="url(#p394d760a85)" style="fill: none; stroke: #b0b0b0; stroke-opacity: 0.25; stroke-width: 0.75; stroke-linecap: square"/>
     </g>
     <g id="line2d_34">
      <defs>
       <path id="m8308cb874e" d="M 0 0 
L -3.5 0 
" style="stroke: #000000; stroke-width: 0.8"/>
      </defs>
      <g>
       <use xlink:href="#m8308cb874e" x="72" y="492.480018" style="stroke: #000000; stroke-width: 0.8"/>
      </g>
     </g>
     <g id="text_6">
      <!-- 0.0 -->
      <g transform="translate(28.990625 498.608143) scale(0.2 -0.2)">
       <defs>
        <path id="CourierNewPSMT-2e" d="M 1866 753 
L 1978 753 
Q 2153 753 2278 629 
Q 2403 506 2403 331 
Q 2403 150 2276 28 
Q 2150 -94 1978 -94 
L 1866 -94 
Q 1691 -94 1566 29 
Q 1441 153 1441 328 
Q 1441 509 1567 631 
Q 1694 753 1866 753 
z
" transform="scale(0.015625)"/>
       </defs>
       <use xlink:href="#CourierNewPSMT-30"/>
       <use xlink:href="#CourierNewPSMT-2e" transform="translate(60.009766 0)"/>
       <use xlink:href="#CourierNewPSMT-30" transform="translate(120.019531 0)"/>
      </g>
     </g>
    </g>
    <g id="ytick_2">
     <g id="line2d_35">
      <path d="M 72 403.206236 
L 518.4 403.206236 
" clip-path="url(#p394d760a85)" style="fill: none; stroke: #b0b0b0; stroke-opacity: 0.25; stroke-width: 0.75; stroke-linecap: square"/>
     </g>
     <g id="line2d_36">
      <g>
       <use xlink:href="#m8308cb874e" x="72" y="403.206236" style="stroke: #000000; stroke-width: 0.8"/>
      </g>
     </g>
     <g id="text_7">
      <!-- 0.2 -->
      <g transform="translate(28.990625 409.334361) scale(0.2 -0.2)">
       <use xlink:href="#CourierNewPSMT-30"/>
       <use xlink:href="#CourierNewPSMT-2e" transform="translate(60.009766 0)"/>
       <use xlink:href="#CourierNewPSMT-32" transform="translate(120.019531 0)"/>
      </g>
     </g>
    </g>
    <g id="ytick_3">
     <g id="line2d_37">
      <path d="M 72 313.932454 
L 518.4 313.932454 
" clip-path="url(#p394d760a85)" style="fill: none; stroke: #b0b0b0; stroke-opacity: 0.25; stroke-width: 0.75; stroke-linecap: square"/>
     </g>
     <g id="line2d_38">
      <g>
       <use xlink:href="#m8308cb874e" x="72" y="313.932454" style="stroke: #000000; stroke-width: 0.8"/>
      </g>
     </g>
     <g id="text_8">
      <!-- 0.4 -->
      <g transform="translate(28.990625 320.060579) scale(0.2 -0.2)">
       <use xlink:href="#CourierNewPSMT-30"/>
       <use xlink:href="#CourierNewPSMT-2e" transform="translate(60.009766 0)"/>
       <use xlink:href="#CourierNewPSMT-34" transform="translate(120.019531 0)"/>
      </g>
     </g>
    </g>
    <g id="ytick_4">
     <g id="line2d_39">
      <path d="M 72 224.658673 
L 518.4 224.658673 
" clip-path="url(#p394d760a85)" style="fill: none; stroke: #b0b0b0; stroke-opacity: 0.25; stroke-width: 0.75; stroke-linecap: square"/>
     </g>
     <g id="line2d_40">
      <g>
       <use xlink:href="#m8308cb874e" x="72" y="224.658673" style="stroke: #000000; stroke-width: 0.8"/>
      </g>
     </g>
     <g id="text_9">
      <!-- 0.6 -->
      <g transform="translate(28.990625 230.786798) scale(0.2 -0.2)">
       <use xlink:href="#CourierNewPSMT-30"/>
       <use xlink:href="#CourierNewPSMT-2e" transform="translate(60.009766 0)"/>
       <use xlink:href="#CourierNewPSMT-36" transform="translate(120.019531 0)"/>
      </g>
     </g>
    </g>
    <g id="ytick_5">
     <g id="line2d_41">
      <path d="M 72 135.384891 
L 518.4 135.384891 
" clip-path="url(#p394d760a85)" style="fill: none; stroke: #b0b0b0; stroke-opacity: 0.25; stroke-width: 0.75; stroke-linecap: square"/>
     </g>
     <g id="line2d_42">
      <g>
       <use xlink:href="#m8308cb874e" x="72" y="135.384891" style="stroke: #000000; stroke-width: 0.8"/>
      </g>
     </g>
     <g id="text_10">
      <!-- 0.8 -->
      <g transform="translate(28.990625 141.513016) scale(0.2 -0.2)">
       <defs>
        <path id="CourierNewPSMT-38" d="M 2459 2034 
Q 2788 1875 2955 1614 
Q 3122 1353 3122 1053 
Q 3122 588 2772 247 
Q 2422 -94 1922 -94 
Q 1422 -94 1072 247 
Q 722 588 722 1053 
Q 722 1350 889 1611 
Q 1056 1872 1388 2034 
Q 1100 2200 969 2378 
Q 788 2631 788 2938 
Q 788 3369 1120 3692 
Q 1453 4016 1922 4016 
Q 2394 4016 2725 3692 
Q 3056 3369 3056 2938 
Q 3056 2631 2875 2381 
Q 2747 2200 2459 2034 
z
M 2788 2928 
Q 2788 3266 2536 3508 
Q 2284 3750 1919 3750 
Q 1556 3750 1304 3506 
Q 1053 3263 1053 2931 
Q 1053 2625 1301 2395 
Q 1550 2166 1919 2166 
Q 2291 2166 2539 2395 
Q 2788 2625 2788 2928 
z
M 2859 1047 
Q 2859 1394 2590 1650 
Q 2322 1906 1922 1906 
Q 1522 1906 1253 1650 
Q 984 1394 984 1050 
Q 984 694 1254 431 
Q 1525 169 1922 169 
Q 2319 169 2589 431 
Q 2859 694 2859 1047 
z
" transform="scale(0.015625)"/>
       </defs>
       <use xlink:href="#CourierNewPSMT-30"/>
       <use xlink:href="#CourierNewPSMT-2e" transform="translate(60.009766 0)"/>
       <use xlink:href="#CourierNewPSMT-38" transform="translate(120.019531 0)"/>
      </g>
     </g>
    </g>
    <g id="ytick_6">
     <g id="line2d_43">
      <path d="M 72 470.161572 
L 518.4 470.161572 
" clip-path="url(#p394d760a85)" style="fill: none; stroke: #b0b0b0; stroke-opacity: 0.15; stroke-width: 0.25; stroke-linecap: square"/>
     </g>
     <g id="line2d_44">
      <defs>
       <path id="mc68fcc795c" d="M 0 0 
L -2 0 
" style="stroke: #000000; stroke-width: 0.6"/>
      </defs>
      <g>
       <use xlink:href="#mc68fcc795c" x="72" y="470.161572" style="stroke: #000000; stroke-width: 0.6"/>
      </g>
     </g>
    </g>
    <g id="ytick_7">
     <g id="line2d_45">
      <path d="M 72 447.843127 
L 518.4 447.843127 
" clip-path="url(#p394d760a85)" style="fill: none; stroke: #b0b0b0; stroke-opacity: 0.15; stroke-width: 0.25; stroke-linecap: square"/>
     </g>
     <g id="line2d_46">
      <g>
       <use xlink:href="#mc68fcc795c" x="72" y="447.843127" style="stroke: #000000; stroke-width: 0.6"/>
      </g>
     </g>
    </g>
    <g id="ytick_8">
     <g id="line2d_47">
      <path d="M 72 425.524681 
L 518.4 425.524681 
" clip-path="url(#p394d760a85)" style="fill: none; stroke: #b0b0b0; stroke-opacity: 0.15; stroke-width: 0.25; stroke-linecap: square"/>
     </g>
     <g id="line2d_48">
      <g>
       <use xlink:href="#mc68fcc795c" x="72" y="425.524681" style="stroke: #000000; stroke-width: 0.6"/>
      </g>
     </g>
    </g>
    <g id="ytick_9">
     <g id="line2d_49">
      <path d="M 72 380.887791 
L 518.4 380.887791 
" clip-path="url(#p394d760a85)" style="fill: none; stroke: #b0b0b0; stroke-opacity: 0.15; stroke-width: 0.25; stroke-linecap: square"/>
     </g>
     <g id="line2d_50">
      <g>
       <use xlink:href="#mc68fcc795c" x="72" y="380.887791" style="stroke: #000000; stroke-width: 0.6"/>
      </g>
     </g>
    </g>
    <g id="ytick_10">
     <g id="line2d_51">
      <path d="M 72 358.569345 
L 518.4 358.569345 
" clip-path="url(#p394d760a85)" style="fill: none; stroke: #b0b0b0; stroke-opacity: 0.15; stroke-width: 0.25; stroke-linecap: square"/>
     </g>
     <g id="line2d_52">
      <g>
       <use xlink:href="#mc68fcc795c" x="72" y="358.569345" style="stroke: #000000; stroke-width: 0.6"/>
      </g>
     </g>
    </g>
    <g id="ytick_11">
     <g id="line2d_53">
      <path d="M 72 336.2509 
L 518.4 336.2509 
" clip-path="url(#p394d760a85)" style="fill: none; stroke: #b0b0b0; stroke-opacity: 0.15; stroke-width: 0.25; stroke-linecap: square"/>
     </g>
     <g id="line2d_54">
      <g>
       <use xlink:href="#mc68fcc795c" x="72" y="336.2509" style="stroke: #000000; stroke-width: 0.6"/>
      </g>
     </g>
    </g>
    <g id="ytick_12">
     <g id="line2d_55">
      <path d="M 72 291.614009 
L 518.4 291.614009 
" clip-path="url(#p394d760a85)" style="fill: none; stroke: #b0b0b0; stroke-opacity: 0.15; stroke-width: 0.25; stroke-linecap: square"/>
     </g>
     <g id="line2d_56">
      <g>
       <use xlink:href="#mc68fcc795c" x="72" y="291.614009" style="stroke: #000000; stroke-width: 0.6"/>
      </g>
     </g>
    </g>
    <g id="ytick_13">
     <g id="line2d_57">
      <path d="M 72 269.295563 
L 518.4 269.295563 
" clip-path="url(#p394d760a85)" style="fill: none; stroke: #b0b0b0; stroke-opacity: 0.15; stroke-width: 0.25; stroke-linecap: square"/>
     </g>
     <g id="line2d_58">
      <g>
       <use xlink:href="#mc68fcc795c" x="72" y="269.295563" style="stroke: #000000; stroke-width: 0.6"/>
      </g>
     </g>
    </g>
    <g id="ytick_14">
     <g id="line2d_59">
      <path d="M 72 246.977118 
L 518.4 246.977118 
" clip-path="url(#p394d760a85)" style="fill: none; stroke: #b0b0b0; stroke-opacity: 0.15; stroke-width: 0.25; stroke-linecap: square"/>
     </g>
     <g id="line2d_60">
      <g>
       <use xlink:href="#mc68fcc795c" x="72" y="246.977118" style="stroke: #000000; stroke-width: 0.6"/>
      </g>
     </g>
    </g>
    <g id="ytick_15">
     <g id="line2d_61">
      <path d="M 72 202.340227 
L 518.4 202.340227 
" clip-path="url(#p394d760a85)" style="fill: none; stroke: #b0b0b0; stroke-opacity: 0.15; stroke-width: 0.25; stroke-linecap: square"/>
     </g>
     <g id="line2d_62">
      <g>
       <use xlink:href="#mc68fcc795c" x="72" y="202.340227" style="stroke: #000000; stroke-width: 0.6"/>
      </g>
     </g>
    </g>
    <g id="ytick_16">
     <g id="line2d_63">
      <path d="M 72 180.021782 
L 518.4 180.021782 
" clip-path="url(#p394d760a85)" style="fill: none; stroke: #b0b0b0; stroke-opacity: 0.15; stroke-width: 0.25; stroke-linecap: square"/>
     </g>
     <g id="line2d_64">
      <g>
       <use xlink:href="#mc68fcc795c" x="72" y="180.021782" style="stroke: #000000; stroke-width: 0.6"/>
      </g>
     </g>
    </g>
    <g id="ytick_17">
     <g id="line2d_65">
      <path d="M 72 157.703336 
L 518.4 157.703336 
" clip-path="url(#p394d760a85)" style="fill: none; stroke: #b0b0b0; stroke-opacity: 0.15; stroke-width: 0.25; stroke-linecap: square"/>
     </g>
     <g id="line2d_66">
      <g>
       <use xlink:href="#mc68fcc795c" x="72" y="157.703336" style="stroke: #000000; stroke-width: 0.6"/>
      </g>
     </g>
    </g>
    <g id="ytick_18">
     <g id="line2d_67">
      <path d="M 72 113.066445 
L 518.4 113.066445 
" clip-path="url(#p394d760a85)" style="fill: none; stroke: #b0b0b0; stroke-opacity: 0.15; stroke-width: 0.25; stroke-linecap: square"/>
     </g>
     <g id="line2d_68">
      <g>
       <use xlink:href="#mc68fcc795c" x="72" y="113.066445" style="stroke: #000000; stroke-width: 0.6"/>
      </g>
     </g>
    </g>
    <g id="ytick_19">
     <g id="line2d_69">
      <path d="M 72 90.748 
L 518.4 90.748 
" clip-path="url(#p394d760a85)" style="fill: none; stroke: #b0b0b0; stroke-opacity: 0.15; stroke-width: 0.25; stroke-linecap: square"/>
     </g>
     <g id="line2d_70">
      <g>
       <use xlink:href="#mc68fcc795c" x="72" y="90.748" style="stroke: #000000; stroke-width: 0.6"/>
      </g>
     </g>
    </g>
    <g id="text_11">
     <!-- Parameter Estimation (Quantification) -->
     <g transform="translate(21.221875 512.937813) rotate(-90) scale(0.2 -0.2)">
      <defs>
       <path id="CourierNewPSMT-50" d="M 1350 1500 
L 1350 263 
L 2250 263 
Q 2344 263 2384 227 
Q 2425 191 2425 131 
Q 2425 75 2384 37 
Q 2344 0 2250 0 
L 734 0 
Q 641 0 600 37 
Q 559 75 559 131 
Q 559 191 600 227 
Q 641 263 734 263 
L 1088 263 
L 1088 3394 
L 734 3394 
Q 641 3394 600 3430 
Q 559 3466 559 3525 
Q 559 3584 600 3620 
Q 641 3656 734 3656 
L 2259 3656 
Q 2800 3656 3142 3337 
Q 3484 3019 3484 2591 
Q 3484 2338 3373 2134 
Q 3263 1931 3106 1816 
Q 2872 1641 2622 1559 
Q 2441 1500 2172 1500 
L 1350 1500 
z
M 1350 1763 
L 2188 1763 
Q 2478 1763 2733 1892 
Q 2988 2022 3105 2209 
Q 3222 2397 3222 2591 
Q 3222 2900 2956 3147 
Q 2691 3394 2284 3394 
L 1350 3394 
L 1350 1763 
z
" transform="scale(0.015625)"/>
       <path id="CourierNewPSMT-61" d="M 2675 0 
L 2675 378 
Q 2103 -103 1453 -103 
Q 981 -103 715 136 
Q 450 375 450 722 
Q 450 1103 800 1387 
Q 1150 1672 1822 1672 
Q 2003 1672 2215 1648 
Q 2428 1625 2675 1575 
L 2675 2000 
Q 2675 2216 2475 2375 
Q 2275 2534 1875 2534 
Q 1569 2534 1016 2356 
Q 916 2325 888 2325 
Q 838 2325 802 2362 
Q 766 2400 766 2456 
Q 766 2509 797 2541 
Q 841 2588 1150 2669 
Q 1638 2800 1888 2800 
Q 2384 2800 2662 2554 
Q 2941 2309 2941 2000 
L 2941 263 
L 3291 263 
Q 3388 263 3428 227 
Q 3469 191 3469 131 
Q 3469 75 3428 37 
Q 3388 0 3291 0 
L 2675 0 
z
M 2675 1306 
Q 2491 1359 2284 1384 
Q 2078 1409 1850 1409 
Q 1278 1409 956 1163 
Q 713 978 713 722 
Q 713 484 898 321 
Q 1084 159 1441 159 
Q 1781 159 2073 295 
Q 2366 431 2675 728 
L 2675 1306 
z
" transform="scale(0.015625)"/>
       <path id="CourierNewPSMT-72" d="M 1606 2706 
L 1606 2044 
Q 2119 2506 2373 2639 
Q 2628 2772 2844 2772 
Q 3078 2772 3279 2614 
Q 3481 2456 3481 2375 
Q 3481 2316 3442 2277 
Q 3403 2238 3344 2238 
Q 3313 2238 3291 2248 
Q 3269 2259 3209 2319 
Q 3100 2428 3019 2468 
Q 2938 2509 2859 2509 
Q 2688 2509 2445 2371 
Q 2203 2234 1606 1700 
L 1606 263 
L 2769 263 
Q 2866 263 2906 227 
Q 2947 191 2947 131 
Q 2947 75 2906 37 
Q 2866 0 2769 0 
L 709 0 
Q 616 0 575 36 
Q 534 72 534 128 
Q 534 181 573 217 
Q 613 253 709 253 
L 1344 253 
L 1344 2441 
L 859 2441 
Q 766 2441 725 2478 
Q 684 2516 684 2575 
Q 684 2631 723 2668 
Q 763 2706 859 2706 
L 1606 2706 
z
" transform="scale(0.015625)"/>
       <path id="CourierNewPSMT-6d" d="M 725 2706 
L 725 2441 
Q 1059 2800 1397 2800 
Q 1600 2800 1753 2692 
Q 1906 2584 2009 2366 
Q 2184 2584 2364 2692 
Q 2544 2800 2725 2800 
Q 3009 2800 3178 2616 
Q 3400 2378 3400 2097 
L 3400 263 
L 3622 263 
Q 3716 263 3756 227 
Q 3797 191 3797 131 
Q 3797 75 3756 37 
Q 3716 0 3622 0 
L 3138 0 
L 3138 2072 
Q 3138 2272 3016 2403 
Q 2894 2534 2734 2534 
Q 2591 2534 2431 2426 
Q 2272 2319 2069 2003 
L 2069 263 
L 2288 263 
Q 2381 263 2422 227 
Q 2463 191 2463 131 
Q 2463 75 2422 37 
Q 2381 0 2288 0 
L 1803 0 
L 1803 2053 
Q 1803 2263 1679 2398 
Q 1556 2534 1403 2534 
Q 1263 2534 1125 2444 
Q 934 2316 725 2003 
L 725 263 
L 947 263 
Q 1041 263 1081 227 
Q 1122 191 1122 131 
Q 1122 75 1081 37 
Q 1041 0 947 0 
L 241 0 
Q 147 0 106 37 
Q 66 75 66 131 
Q 66 191 106 227 
Q 147 263 241 263 
L 463 263 
L 463 2441 
L 241 2441 
Q 147 2441 106 2478 
Q 66 2516 66 2575 
Q 66 2631 106 2668 
Q 147 2706 241 2706 
L 725 2706 
z
" transform="scale(0.015625)"/>
       <path id="CourierNewPSMT-6e" d="M 1072 2706 
L 1072 2309 
Q 1347 2588 1569 2694 
Q 1791 2800 2069 2800 
Q 2369 2800 2616 2672 
Q 2791 2578 2933 2361 
Q 3075 2144 3075 1916 
L 3075 263 
L 3297 263 
Q 3391 263 3431 227 
Q 3472 191 3472 131 
Q 3472 75 3431 37 
Q 3391 0 3297 0 
L 2594 0 
Q 2497 0 2456 37 
Q 2416 75 2416 131 
Q 2416 191 2456 227 
Q 2497 263 2594 263 
L 2813 263 
L 2813 1872 
Q 2813 2150 2609 2342 
Q 2406 2534 2066 2534 
Q 1806 2534 1615 2429 
Q 1425 2325 1072 1909 
L 1072 263 
L 1369 263 
Q 1463 263 1503 227 
Q 1544 191 1544 131 
Q 1544 75 1503 37 
Q 1463 0 1369 0 
L 513 0 
Q 419 0 378 37 
Q 338 75 338 131 
Q 338 191 378 227 
Q 419 263 513 263 
L 809 263 
L 809 2441 
L 588 2441 
Q 494 2441 453 2478 
Q 413 2516 413 2575 
Q 413 2631 453 2668 
Q 494 2706 588 2706 
L 1072 2706 
z
" transform="scale(0.015625)"/>
       <path id="CourierNewPSMT-51" d="M 1956 -103 
L 1606 -366 
Q 1866 -313 2034 -313 
Q 2309 -313 2575 -413 
Q 2763 -484 2866 -484 
Q 3047 -484 3269 -338 
Q 3356 -281 3394 -281 
Q 3450 -281 3486 -317 
Q 3522 -353 3522 -413 
Q 3522 -459 3491 -494 
Q 3425 -569 3194 -669 
Q 3019 -747 2850 -747 
Q 2719 -747 2487 -662 
Q 2256 -578 2041 -578 
Q 1888 -578 1663 -616 
Q 1347 -669 1156 -722 
Q 1094 -738 1066 -738 
Q 1013 -738 975 -700 
Q 938 -663 938 -600 
Q 938 -538 1009 -488 
L 1594 -66 
Q 1072 63 698 578 
Q 325 1094 325 1819 
Q 325 2666 808 3203 
Q 1291 3741 1925 3741 
Q 2559 3741 3042 3203 
Q 3525 2666 3525 1819 
Q 3525 984 3050 445 
Q 2575 -94 1956 -103 
z
M 3259 1819 
Q 3259 2459 2887 2968 
Q 2516 3478 1925 3478 
Q 1372 3478 980 2992 
Q 588 2506 588 1819 
Q 588 1088 998 623 
Q 1409 159 1925 159 
Q 2516 159 2887 667 
Q 3259 1175 3259 1819 
z
" transform="scale(0.015625)"/>
      </defs>
      <use xlink:href="#CourierNewPSMT-50"/>
      <use xlink:href="#CourierNewPSMT-61" transform="translate(60.009766 0)"/>
      <use xlink:href="#CourierNewPSMT-72" transform="translate(120.019531 0)"/>
      <use xlink:href="#CourierNewPSMT-61" transform="translate(180.029297 0)"/>
      <use xlink:href="#CourierNewPSMT-6d" transform="translate(240.039062 0)"/>
      <use xlink:href="#CourierNewPSMT-65" transform="translate(300.048828 0)"/>
      <use xlink:href="#CourierNewPSMT-74" transform="translate(360.058594 0)"/>
      <use xlink:href="#CourierNewPSMT-65" transform="translate(420.068359 0)"/>
      <use xlink:href="#CourierNewPSMT-72" transform="translate(480.078125 0)"/>
      <use xlink:href="#CourierNewPSMT-20" transform="translate(540.087891 0)"/>
      <use xlink:href="#CourierNewPSMT-45" transform="translate(600.097656 0)"/>
      <use xlink:href="#CourierNewPSMT-73" transform="translate(660.107422 0)"/>
      <use xlink:href="#CourierNewPSMT-74" transform="translate(720.117188 0)"/>
      <use xlink:href="#CourierNewPSMT-69" transform="translate(780.126953 0)"/>
      <use xlink:href="#CourierNewPSMT-6d" transform="translate(840.136719 0)"/>
      <use xlink:href="#CourierNewPSMT-61" transform="translate(900.146484 0)"/>
      <use xlink:href="#CourierNewPSMT-74" transform="translate(960.15625 0)"/>
      <use xlink:href="#CourierNewPSMT-69" transform="translate(1020.166016 0)"/>
      <use xlink:href="#CourierNewPSMT-6f" transform="translate(1080.175781 0)"/>
      <use xlink:href="#CourierNewPSMT-6e" transform="translate(1140.185547 0)"/>
      <use xlink:href="#CourierNewPSMT-20" transform="translate(1200.195312 0)"/>
      <use xlink:href="#CourierNewPSMT-28" transform="translate(1260.205078 0)"/>
      <use xlink:href="#CourierNewPSMT-51" transform="translate(1320.214844 0)"/>
      <use xlink:href="#CourierNewPSMT-75" transform="translate(1380.224609 0)"/>
      <use xlink:href="#CourierNewPSMT-61" transform="translate(1440.234375 0)"/>
      <use xlink:href="#CourierNewPSMT-6e" transform="translate(1500.244141 0)"/>
      <use xlink:href="#CourierNewPSMT-74" transform="translate(1560.253906 0)"/>
      <use xlink:href="#CourierNewPSMT-69" transform="translate(1620.263672 0)"/>
      <use xlink:href="#CourierNewPSMT-66" transform="translate(1680.273438 0)"/>
      <use xlink:href="#CourierNewPSMT-69" transform="translate(1740.283203 0)"/>
      <use xlink:href="#CourierNewPSMT-63" transform="translate(1800.292969 0)"/>
      <use xlink:href="#CourierNewPSMT-61" transform="translate(1860.302734 0)"/>
      <use xlink:href="#CourierNewPSMT-74" transform="translate(1920.3125 0)"/>
      <use xlink:href="#CourierNewPSMT-69" transform="translate(1980.322266 0)"/>
      <use xlink:href="#CourierNewPSMT-6f" transform="translate(2040.332031 0)"/>
      <use xlink:href="#CourierNewPSMT-6e" transform="translate(2100.341797 0)"/>
      <use xlink:href="#CourierNewPSMT-29" transform="translate(2160.351562 0)"/>
     </g>
    </g>
   </g>
   <g id="PathCollection_1">
    <defs>
     <path id="md878740524" d="M 0 3 
C 0.795609 3 1.55874 2.683901 2.12132 2.12132 
C 2.683901 1.55874 3 0.795609 3 0 
C 3 -0.795609 2.683901 -1.55874 2.12132 -2.12132 
C 1.55874 -2.683901 0.795609 -3 0 -3 
C -0.795609 -3 -1.55874 -2.683901 -2.12132 -2.12132 
C -2.683901 -1.55874 -3 -0.795609 -3 0 
C -3 0.795609 -2.683901 1.55874 -2.12132 2.12132 
C -1.55874 2.683901 -0.795609 3 0 3 
z
" style="stroke: #772f1a"/>
    </defs>
    <g clip-path="url(#p394d760a85)">
     <use xlink:href="#md878740524" x="93.778307" y="89.28" style="fill: #772f1a; stroke: #772f1a"/>
     <use xlink:href="#md878740524" x="101.711596" y="422.080305" style="fill: #772f1a; stroke: #772f1a"/>
     <use xlink:href="#md878740524" x="92.290909" y="346.910634" style="fill: #772f1a; stroke: #772f1a"/>
     <use xlink:href="#md878740524" x="253.998104" y="491.818877" style="fill: #772f1a; stroke: #772f1a"/>
     <use xlink:href="#md878740524" x="193.835599" y="490.383163" style="fill: #772f1a; stroke: #772f1a"/>
     <use xlink:href="#md878740524" x="146.729034" y="485.076763" style="fill: #772f1a; stroke: #772f1a"/>
     <use xlink:href="#md878740524" x="197.712958" y="492.48" style="fill: #772f1a; stroke: #772f1a"/>
     <use xlink:href="#md878740524" x="471.649485" y="463.245788" style="fill: #772f1a; stroke: #772f1a"/>
     <use xlink:href="#md878740524" x="92.681658" y="331.417017" style="fill: #772f1a; stroke: #772f1a"/>
     <use xlink:href="#md878740524" x="125.95768" y="468.501108" style="fill: #772f1a; stroke: #772f1a"/>
     <use xlink:href="#md878740524" x="98.08832" y="486.181851" style="fill: #772f1a; stroke: #772f1a"/>
     <use xlink:href="#md878740524" x="396.631903" y="477.22969" style="fill: #772f1a; stroke: #772f1a"/>
     <use xlink:href="#md878740524" x="382.88573" y="481.541597" style="fill: #772f1a; stroke: #772f1a"/>
     <use xlink:href="#md878740524" x="339.613121" y="235.112679" style="fill: #772f1a; stroke: #772f1a"/>
     <use xlink:href="#md878740524" x="213.668924" y="443.747685" style="fill: #772f1a; stroke: #772f1a"/>
     <use xlink:href="#md878740524" x="251.982235" y="383.425943" style="fill: #772f1a; stroke: #772f1a"/>
     <use xlink:href="#md878740524" x="280.506451" y="492.429866" style="fill: #772f1a; stroke: #772f1a"/>
     <use xlink:href="#md878740524" x="318.586602" y="491.52232" style="fill: #772f1a; stroke: #772f1a"/>
     <use xlink:href="#md878740524" x="112.430223" y="491.573498" style="fill: #772f1a; stroke: #772f1a"/>
     <use xlink:href="#md878740524" x="270.681622" y="201.500206" style="fill: #772f1a; stroke: #772f1a"/>
     <use xlink:href="#md878740524" x="432.69005" y="457.79768" style="fill: #772f1a; stroke: #772f1a"/>
     <use xlink:href="#md878740524" x="101.902609" y="492.477112" style="fill: #772f1a; stroke: #772f1a"/>
     <use xlink:href="#md878740524" x="199.691278" y="445.856616" style="fill: #772f1a; stroke: #772f1a"/>
     <use xlink:href="#md878740524" x="173.366106" y="124.689382" style="fill: #772f1a; stroke: #772f1a"/>
     <use xlink:href="#md878740524" x="235.623893" y="489.762956" style="fill: #772f1a; stroke: #772f1a"/>
     <use xlink:href="#md878740524" x="251.609545" y="373.41001" style="fill: #772f1a; stroke: #772f1a"/>
     <use xlink:href="#md878740524" x="455.485281" y="155.800864" style="fill: #772f1a; stroke: #772f1a"/>
     <use xlink:href="#md878740524" x="165.496505" y="118.447827" style="fill: #772f1a; stroke: #772f1a"/>
     <use xlink:href="#md878740524" x="307.758403" y="114.700605" style="fill: #772f1a; stroke: #772f1a"/>
     <use xlink:href="#md878740524" x="97.208905" y="423.728132" style="fill: #772f1a; stroke: #772f1a"/>
     <use xlink:href="#md878740524" x="101.628406" y="492.466379" style="fill: #772f1a; stroke: #772f1a"/>
     <use xlink:href="#md878740524" x="183.022052" y="473.968177" style="fill: #772f1a; stroke: #772f1a"/>
     <use xlink:href="#md878740524" x="193.592772" y="340.982277" style="fill: #772f1a; stroke: #772f1a"/>
     <use xlink:href="#md878740524" x="498.109091" y="395.69453" style="fill: #772f1a; stroke: #772f1a"/>
     <use xlink:href="#md878740524" x="125.119167" y="309.496833" style="fill: #772f1a; stroke: #772f1a"/>
     <use xlink:href="#md878740524" x="135.231383" y="488.960538" style="fill: #772f1a; stroke: #772f1a"/>
     <use xlink:href="#md878740524" x="94.243734" y="491.397604" style="fill: #772f1a; stroke: #772f1a"/>
     <use xlink:href="#md878740524" x="491.653072" y="492.021296" style="fill: #772f1a; stroke: #772f1a"/>
     <use xlink:href="#md878740524" x="455.211852" y="327.599918" style="fill: #772f1a; stroke: #772f1a"/>
     <use xlink:href="#md878740524" x="337.31727" y="452.273736" style="fill: #772f1a; stroke: #772f1a"/>
    </g>
   </g>
   <g id="patch_3">
    <path d="M 72 512.64 
L 72 69.12 
" style="fill: none; stroke: #000000; stroke-width: 0.8; stroke-linejoin: miter; stroke-linecap: square"/>
   </g>
   <g id="patch_4">
    <path d="M 518.4 512.64 
L 518.4 69.12 
" style="fill: none; stroke: #000000; stroke-width: 0.8; stroke-linejoin: miter; stroke-linecap: square"/>
   </g>
   <g id="patch_5">
    <path d="M 72 512.64 
L 518.4 512.64 
" style="fill: none; stroke: #000000; stroke-width: 0.8; stroke-linejoin: miter; stroke-linecap: square"/>
   </g>
   <g id="patch_6">
    <path d="M 72 69.12 
L 518.4 69.12 
" style="fill: none; stroke: #000000; stroke-width: 0.8; stroke-linejoin: miter; stroke-linecap: square"/>
   </g>
  </g>
 </g>
 <defs>
  <clipPath id="p394d760a85">
   <rect x="72" y="69.12" width="446.4" height="443.52"/>
  </clipPath>
 </defs>
</svg>
